<svg xmlns="http://www.w3.org/2000/svg" width="956.178" height="372.044" viewBox="0 0 956.178 372.044">
  <g id="g10" transform="translate(-321.908 993.38)">
    <g id="g12">
      <path id="path14" d="M1128.881-807.357c0,102.736-83.286,186.021-186.024,186.021S756.835-704.621,756.835-807.357,840.121-993.38,942.858-993.38s186.024,83.284,186.024,186.024" fill="#d3d2d2"/>
      <path id="path16" d="M601.693-775.007c-.929-13.548-3.583-28.481-8.111-45.652-4.983-18.9-11.268-33.422-19.773-45.7-10.921-15.771-24.917-25.273-40.469-27.48-16.225-2.3-33.516,3.239-48.7,15.6-7.663,6.237-14.135,13.789-20.392,21.093-1.725,2.012-3.449,4.025-5.193,6.005-7.505-11.445-15.268-23.261-23.5-34.539-6.364-8.717-15.368-14.139-25.353-15.265-24.448-2.752-49.465-.917-66.835,30.925a8.133,8.133,0,0,1-1.724,2.253c-18.727,5.191-19.28,22.708-19.463,28.483-.364,11.588-.284,23.331-.205,34.687.033,4.865.069,9.732.069,14.595v5.669h.783c.095,2.969.176,5.935.257,8.843.3,10.973.617,22.321,1.689,33.507a236.576,236.576,0,0,0,6.975,39.351c3.876,14.28,17.22,21.633,32.445,17.88,12.028-2.968,20.019-15.591,18.585-29.365-.249-2.407-.6-4.779-.945-7.073-.268-1.8-.535-3.6-.751-5.405-3.809-32.1-2.592-65.593,3.723-102.4,1.105-6.433,4.176-12.851,6.729-17.72a4.425,4.425,0,0,1,3.649-2.34,3.216,3.216,0,0,1,2.849,1.2,263.441,263.441,0,0,1,16.587,26.3c6.176,11.669,8.308,24.557,10.567,38.2.524,3.159,1.044,6.32,1.62,9.464,3.48,19.041,7.463,38.385,11.831,57.5,2.84,12.42,13.364,20.092,26.8,19.523,12.563-.525,21.832-8.6,24.184-21.068a98.5,98.5,0,0,0,1.331-17.084c.1-8.875.1-17.884.1-26.6,0-6.121,0-12.241.029-18.36.129-24.409,8.551-42.864,25.739-56.42,3.82-3.012,6.875-4.385,8.829-3.964,2.277.488,4.391,3.721,5.763,6.347a150.547,150.547,0,0,1,10.375,25.052c5.687,18.356,8.56,38.707,9.325,65.985.2,7.083.153,14.34.112,21.361-.041,6.676-.083,13.58.081,20.407.153,6.452,1.207,11.652,3.223,15.9,4.065,8.569,12.887,13.665,22.732,13.665a29.615,29.615,0,0,0,6.877-.821,25.433,25.433,0,0,0,19.728-25.556l-.059-5.688c-.239-23.369-.481-47.533-2.111-71.289" fill="#fcb040"/>
      <path id="path18" d="M1050.809-834.513c-23.193.493-45.917,1.377-71.085,2.4-.652.025-1.6.065-2.441.072-.035-.525-.064-1.167-.093-1.923l-.451-12.015c-.6-16.252-1.232-33.06-1.968-49.593a57.852,57.852,0,0,0-2-13.692,26.673,26.673,0,0,0-33.04-18.025c-12.772,3.691-20.171,13.973-19.791,27.508.568,20.256,1.432,42.177,2.719,68.984.011.269.017.505.019.707-2.365.007-4.677.163-6.911.316-1.352.092-2.7.184-4.053.24q-8.946.368-17.889.709c-11.419.444-23.224.9-34.843,1.451-13.252.625-23.153,7.909-26.488,19.479a26.916,26.916,0,0,0,4.573,24.359c5.788,7.38,14.867,11.345,24.939,10.972q22.43-.9,44.859-1.909l15.148-.659c1.207-.053,2.161-.075,2.857-.06.068.695.125,1.648.169,2.855q.266,7.092.515,14.187c.569,15.891,1.161,32.328,1.976,48.5a35.709,35.709,0,0,0,3.792,14.272c4.744,9.208,13.144,14.229,23.74,14.229.4,0,.8-.007,1.2-.021,11.163-.393,19.38-5.887,23.137-15.468a58.108,58.108,0,0,0,2.972-12.976c.265-1.787-.113-8.879-.209-11.051h0l-.576-12.383q-.986-21.354-2.024-42.7c-.031-.616-.044-1.1-.048-1.488.371-.028.836-.055,1.421-.075q8.458-.284,16.921-.521c8.316-.245,16.919-.5,25.388-.823,2.315-.092,4.637-.16,6.956-.232,8.115-.249,16.5-.505,24.793-1.557,15.488-1.967,25.732-14.429,24.363-29.64-1.288-14.243-13.556-24.775-28.549-24.424" fill="#fcb040"/>
      <path id="path20" d="M816.071-840.167c-.263-5.056-.619-11.98-1.2-18.789-1.359-15.792-13.768-26.667-29.533-25.905-14.521.72-25.148,12.6-25.264,28.249-.011,1.221.04,2.391.089,3.523.041.925.083,1.851.081,2.777,0,4.071.064,8.192.133,12.176.151,8.907.307,18.116-.387,26.973-2.109,26.977-8.8,47.134-21.053,63.429-3.057,4.068-6.48,6.433-9.635,6.66-2.695.2-5.507-1.125-8.328-3.929a87.173,87.173,0,0,1-15.907-21.425c-11.419-22.1-17.043-47.621-17.7-80.325l-.015-.751c-.1-4.956-.2-10.08-1.619-15.136a25.511,25.511,0,0,0-17.364-17.7,26.341,26.341,0,0,0-24.968,5.659c-7.792,6.86-8.872,15.665-8.941,22.572-.325,31.764,4.08,60.257,13.463,87.11,8.74,25.019,19.887,43.28,35.073,57.472,14.176,13.251,30.028,19.932,46.195,19.931,12.889,0,25.983-4.249,38.579-12.8,16.819-11.417,25.973-29.237,31.395-41.645,11.575-26.479,16.873-55.105,17.18-92.82v-.195l-.013-.191c-.081-1.376-.168-3.041-.263-4.917" fill="#fcb040"/>
      <path id="path22" d="M1275.87-865.041c-1.461-12.105-13.456-21.252-26.753-20.345-13.353.891-22.969,10.119-23.931,22.964-.441,5.885-.333,11.776-.229,17.472.045,2.479.091,4.956.091,7.431l.005.237c.964,22.961-1.737,43.477-8.263,62.719-3.073,9.067-7.321,19.413-15.52,27.415-7.119,6.945-11.607,5.532-16.155,1.271-7.324-6.861-12.016-12.751-14.768-18.535-13-27.323-19.313-57.292-18.768-89.08a37.31,37.31,0,0,0-1.035-9.761c-2.527-9.953-9.027-16.672-18.8-19.431-9.885-2.793-18.959-.583-26.239,6.387-5.845,5.6-8.725,12.964-8.808,22.525-.244,28.617,3.552,55.536,11.281,80.005,7.105,22.5,17.565,48.125,41.263,67.594,13.509,11.1,28.737,16.625,43.632,16.625,15.769,0,31.165-6.2,43.737-18.537a119.6,119.6,0,0,0,21.564-29.412c12.967-24.659,19.472-52.7,19.885-85.713a317.44,317.44,0,0,0-2.191-41.831" fill="#fcb040"/>
    </g>
  </g>
</svg>
